<?xml version="1.0" standalone="no"?>
<!DOCTYPE svg PUBLIC "-//W3C//DTD SVG 20010904//EN"
 "http://www.w3.org/TR/2001/REC-SVG-20010904/DTD/svg10.dtd">
<svg version="1.0" xmlns="http://www.w3.org/2000/svg"
 width="122.000000pt" height="108.000000pt" viewBox="0 0 122.000000 108.000000"
 preserveAspectRatio="xMidYMid meet">

<g transform="translate(0.000000,108.000000) scale(0.100000,-0.100000)"
fill="#000000" stroke="none">
<path d="M23 974 c8 -46 40 -94 85 -125 l36 -24 420 -3 c232 -2 436 0 454 3
62 11 142 104 142 165 0 20 -4 20 -571 20 l-572 0 6 -36z"/>
<path d="M20 345 l0 -285 95 0 95 0 0 190 0 190 380 0 380 0 0 -190 0 -190 95
0 95 0 0 285 0 285 -570 0 -570 0 0 -285z"/>
</g>
</svg>
