<?xml version="1.0" standalone="no"?>
<!DOCTYPE svg PUBLIC "-//W3C//DTD SVG 20010904//EN"
 "http://www.w3.org/TR/2001/REC-SVG-20010904/DTD/svg10.dtd">
<svg version="1.0" xmlns="http://www.w3.org/2000/svg"
 width="589.000000pt" height="71.000000pt" viewBox="0 0 589.000000 71.000000"
 preserveAspectRatio="xMidYMid meet">

<g transform="translate(0.000000,71.000000) scale(0.100000,-0.100000)"
fill="#000000" stroke="none">
<path d="M20 670 c0 -5 5 -20 11 -33 22 -48 46 -52 281 -52 l220 0 29 33 c56
63 60 62 -256 62 -174 0 -285 -4 -285 -10z"/>
<path d="M680 440 l0 -240 50 0 50 0 0 240 0 240 -50 0 -50 0 0 -240z"/>
<path d="M870 670 c0 -5 5 -20 11 -33 22 -48 40 -52 257 -55 l202 -3 0 -29 c0
-62 9 -60 -241 -60 l-229 0 0 -145 0 -145 50 0 50 0 0 95 0 95 68 0 67 0 95
-95 95 -95 75 0 75 0 -95 95 -95 95 63 0 c57 0 67 3 93 29 29 29 29 31 29 145
l0 116 -285 0 c-174 0 -285 -4 -285 -10z"/>
<path d="M1540 630 l0 -50 235 0 235 0 0 -29 c0 -63 10 -61 -241 -61 l-229 0
0 -145 0 -145 285 0 285 0 0 104 c0 81 -3 106 -15 116 -14 12 -14 15 0 30 11
13 15 42 15 123 l0 107 -285 0 -285 0 0 -50z m458 -252 c7 -7 12 -27 12 -45
l0 -33 -185 0 -185 0 0 45 0 45 173 0 c121 0 177 -4 185 -12z"/>
<path d="M2200 670 c0 -5 5 -20 11 -33 22 -48 46 -52 281 -52 l220 0 29 33
c56 63 60 62 -256 62 -174 0 -285 -4 -285 -10z"/>
<path d="M2870 670 c0 -5 5 -20 11 -33 22 -48 40 -52 257 -55 l202 -3 0 -29
c0 -62 9 -60 -241 -60 l-229 0 0 -145 0 -145 50 0 50 0 0 95 0 95 68 0 67 0
95 -95 95 -95 75 0 75 0 -95 95 -95 95 63 0 c57 0 67 3 93 29 29 29 29 31 29
145 l0 116 -285 0 c-174 0 -285 -4 -285 -10z"/>
<path d="M3573 632 l47 -48 0 -192 0 -192 50 0 50 0 0 143 1 142 138 -142 138
-143 52 0 51 0 0 240 0 240 -50 0 -50 0 0 -167 0 -168 -168 168 -167 167 -70
0 -69 0 47 -48z"/>
<path d="M4200 670 c0 -5 5 -20 11 -33 22 -48 46 -52 281 -52 l220 0 29 33
c56 63 60 62 -256 62 -174 0 -285 -4 -285 -10z"/>
<path d="M20 345 l0 -145 50 0 50 0 0 95 0 95 185 0 185 0 0 -95 0 -95 50 0
50 0 0 145 0 145 -285 0 -285 0 0 -145z"/>
<path d="M2200 346 l0 -146 285 0 285 0 0 146 0 145 -47 -3 -48 -3 -3 -92 -3
-93 -184 0 -184 0 -3 93 -3 92 -47 3 -48 3 0 -145z"/>
<path d="M4200 469 c0 -11 13 -34 29 -50 l29 -29 227 0 227 0 29 29 c16 16 29
39 29 50 0 21 -3 21 -285 21 -282 0 -285 0 -285 -21z"/>
<path d="M4200 279 c0 -11 13 -34 29 -50 l29 -29 227 0 227 0 29 29 c16 16 29
39 29 50 0 21 -3 21 -285 21 -282 0 -285 0 -285 -21z"/>
</g>
</svg>
